# xmcd
#
# Track frame offsets:
#	150
#	16169
#	30766
#	49299
#	63700
#	78241
#	94213
#	110422
#	128078
#	148435
#	164618
#	175242
#	190569
#	207654
#	220597
#	234996
#	250355
#	265021
#	276493
#	288189
#	321813
#
# Disc length: 4445 seconds
#
# Revision: 1
# Processed by: cddbd v1.4PL0 Copyright (c) Steve Scherf et al.
# Submitted via: audiograbber 1.80
#
DISCID=34115b15
DTITLE=Various Artist - Hott Country 021
DYEAR=1900
DGENRE=
TTITLE0=Trish Yearwood/Garth Brooks - In Another's Eyes
TTITLE1=Brooks and Dunn - Honky Tonk Truth
TTITLE2=Reba McEntire - What If It's you
TTITLE3=George Strait - Today My World Slipped Away
TTITLE4=Trace Adkins - The Rest Of Mine
TTITLE5=Pam Tillis - Land Of The Living
TTITLE6=Michael Peterson - From Here To Eternity
TTITLE7=Tracy Lawrence - The Coast Is Clear
TTITLE8=Lonestar - You Walked In
TTITLE9=Martina  McBride - A Broken Wing
TTITLE10=Gary Allan - Living In A House Full Of Love
TTITLE11=Ty Herndon - I Have To Surrender
TTITLE12=Sons Of The Desert - Hand Of Fate
TTITLE13=Ricochet - Blink Of An Eye
TTITLE14=Rick Trevino - See Rock City
TTITLE15=Julian Austin - Diamond
TTITLE16=Matraca Berg - That Train Don't Run
TTITLE17=Duane Steele - Tell The Girl
TTITLE18=Cindy Church - Lover Please
TTITLE19=John Anderson - Small Town
TTITLE20=Data - Data Track
EXTD=
EXTT0=
EXTT1=
EXTT2=
EXTT3=
EXTT4=
EXTT5=
EXTT6=
EXTT7=
EXTT8=
EXTT9=
EXTT10=
EXTT11=
EXTT12=
EXTT13=
EXTT14=
EXTT15=
EXTT16=
EXTT17=
EXTT18=
EXTT19=
EXTT20=
PLAYORDER=
